<svg viewBox="0 0 327 323" fill="none" xmlns="http://www.w3.org/2000/svg">
<path d="M53.6693 255.74C54.7093 255.66 55.7693 255.62 56.8493 255.62C57.9426 255.62 58.8826 255.887 59.6693 256.42C60.4693 256.953 60.8693 257.727 60.8693 258.74C60.8693 259.5 60.656 260.207 60.2293 260.86C59.816 261.513 59.316 262.007 58.7293 262.34C59.676 262.633 60.4693 263.14 61.1093 263.86C61.7493 264.58 62.0693 265.387 62.0693 266.28C62.0693 267.533 61.6693 268.487 60.8693 269.14C60.0826 269.793 58.996 270.12 57.6093 270.12C56.236 270.12 54.9226 270.067 53.6693 269.96V255.74ZM57.7293 269.26C58.7026 269.26 59.5026 268.993 60.1293 268.46C60.756 267.913 61.0693 267.22 61.0693 266.38C61.0693 265.54 60.7626 264.813 60.1493 264.2C59.5493 263.587 58.7226 263.167 57.6693 262.94C57.176 262.833 56.6026 262.78 55.9493 262.78C55.3093 262.78 54.8693 262.78 54.6293 262.78V269.16C55.216 269.227 56.2493 269.26 57.7293 269.26ZM59.9093 258.72C59.9093 257.987 59.6026 257.42 58.9893 257.02C58.3893 256.62 57.7093 256.42 56.9493 256.42C56.2026 256.42 55.4293 256.447 54.6293 256.5V261.96C54.8026 261.96 55.1293 261.96 55.6093 261.96C56.0893 261.96 56.796 262 57.7293 262.08C58.3293 261.76 58.8426 261.3 59.2693 260.7C59.696 260.1 59.9093 259.44 59.9093 258.72ZM66.6474 265.5L64.7874 270H63.8474L69.2874 256.94H69.8274L75.3074 270H74.2874L72.4074 265.5H66.6474ZM69.5074 258.42C69.3074 259.02 69.1274 259.52 68.9674 259.92L66.9674 264.72H72.0874L70.1074 259.94C69.8008 259.193 69.6008 258.687 69.5074 258.42ZM87.8066 269.36C86.8066 269.92 85.4133 270.2 83.6266 270.2C81.8533 270.2 80.2866 269.56 78.9266 268.28C77.58 267 76.9066 265.413 76.9066 263.52C76.9066 261.613 77.4933 260.02 78.6666 258.74C79.8533 257.46 81.38 256.82 83.2466 256.82C84.7533 256.82 86.2266 257.053 87.6666 257.52L87.4266 258.28C86.04 257.853 84.6066 257.64 83.1266 257.64C81.6466 257.64 80.4 258.207 79.3866 259.34C78.3866 260.46 77.8866 261.84 77.8866 263.48C77.8866 265.107 78.4666 266.493 79.6266 267.64C80.8 268.787 82.1533 269.36 83.6866 269.36C85.22 269.36 86.4933 269.147 87.5066 268.72L87.8066 269.36ZM101.026 270V263.44H92.0055V270H91.0855V257.02H92.0055V262.62H101.026V257.02H101.946V270H101.026ZM106.75 270V257.02H112.81V257.82H107.67V262.54H112.31V263.32H107.67V269.16H113.01V270H106.75ZM116.691 270V257.02H117.611V269.16H123.571V270H116.691ZM131.24 270.2C129.386 270.2 127.833 269.553 126.58 268.26C125.326 266.967 124.7 265.387 124.7 263.52C124.7 261.64 125.326 260.053 126.58 258.76C127.833 257.467 129.386 256.82 131.24 256.82C133.093 256.82 134.646 257.467 135.9 258.76C137.153 260.053 137.78 261.64 137.78 263.52C137.78 265.387 137.153 266.967 135.9 268.26C134.646 269.553 133.093 270.2 131.24 270.2ZM131.24 257.64C129.64 257.64 128.306 258.207 127.24 259.34C126.186 260.473 125.66 261.867 125.66 263.52C125.66 265.16 126.186 266.547 127.24 267.68C128.306 268.8 129.64 269.36 131.24 269.36C132.853 269.36 134.186 268.8 135.24 267.68C136.293 266.547 136.82 265.16 136.82 263.52C136.82 261.867 136.293 260.473 135.24 259.34C134.186 258.207 132.853 257.64 131.24 257.64ZM141.789 270V257.08C142.935 256.987 143.909 256.94 144.709 256.94C145.935 256.94 146.949 257.26 147.749 257.9C148.549 258.527 148.949 259.427 148.949 260.6C148.949 261.387 148.722 262.113 148.269 262.78C147.815 263.447 147.302 263.987 146.729 264.4C148.315 266.507 149.295 267.767 149.669 268.18C150.429 268.967 151.255 269.413 152.149 269.52L152.129 270.14C151.382 270.127 150.775 270.02 150.309 269.82C149.842 269.607 149.375 269.253 148.909 268.76C148.455 268.267 147.449 266.94 145.889 264.78C144.809 264.78 143.749 264.747 142.709 264.68V270H141.789ZM145.389 264.02C145.909 264.02 146.469 263.673 147.069 262.98C147.669 262.287 147.969 261.48 147.969 260.56C147.969 259.64 147.655 258.94 147.029 258.46C146.402 257.98 145.589 257.74 144.589 257.74C144.055 257.74 143.429 257.767 142.709 257.82V263.92C143.669 263.987 144.562 264.02 145.389 264.02ZM166.904 270.2C165.05 270.2 163.497 269.553 162.244 268.26C160.99 266.967 160.364 265.387 160.364 263.52C160.364 261.64 160.99 260.053 162.244 258.76C163.497 257.467 165.05 256.82 166.904 256.82C168.757 256.82 170.31 257.467 171.564 258.76C172.817 260.053 173.444 261.64 173.444 263.52C173.444 265.387 172.817 266.967 171.564 268.26C170.31 269.553 168.757 270.2 166.904 270.2ZM166.904 257.64C165.304 257.64 163.97 258.207 162.904 259.34C161.85 260.473 161.324 261.867 161.324 263.52C161.324 265.16 161.85 266.547 162.904 267.68C163.97 268.8 165.304 269.36 166.904 269.36C168.517 269.36 169.85 268.8 170.904 267.68C171.957 266.547 172.484 265.16 172.484 263.52C172.484 261.867 171.957 260.473 170.904 259.34C169.85 258.207 168.517 257.64 166.904 257.64ZM177.453 270V257.02H184.113V257.82H178.373V262.54H183.613V263.32H178.373V270H177.453ZM195.115 255.74C196.155 255.66 197.215 255.62 198.295 255.62C199.388 255.62 200.328 255.887 201.115 256.42C201.915 256.953 202.315 257.727 202.315 258.74C202.315 259.5 202.101 260.207 201.675 260.86C201.261 261.513 200.761 262.007 200.175 262.34C201.121 262.633 201.915 263.14 202.555 263.86C203.195 264.58 203.515 265.387 203.515 266.28C203.515 267.533 203.115 268.487 202.315 269.14C201.528 269.793 200.441 270.12 199.055 270.12C197.681 270.12 196.368 270.067 195.115 269.96V255.74ZM199.175 269.26C200.148 269.26 200.948 268.993 201.575 268.46C202.201 267.913 202.515 267.22 202.515 266.38C202.515 265.54 202.208 264.813 201.595 264.2C200.995 263.587 200.168 263.167 199.115 262.94C198.621 262.833 198.048 262.78 197.395 262.78C196.755 262.78 196.315 262.78 196.075 262.78V269.16C196.661 269.227 197.695 269.26 199.175 269.26ZM201.355 258.72C201.355 257.987 201.048 257.42 200.435 257.02C199.835 256.62 199.155 256.42 198.395 256.42C197.648 256.42 196.875 256.447 196.075 256.5V261.96C196.248 261.96 196.575 261.96 197.055 261.96C197.535 261.96 198.241 262 199.175 262.08C199.775 261.76 200.288 261.3 200.715 260.7C201.141 260.1 201.355 259.44 201.355 258.72ZM216.693 268.66C215.813 269.687 214.473 270.2 212.673 270.2C210.873 270.2 209.533 269.687 208.653 268.66C207.773 267.633 207.333 266.213 207.333 264.4V257.02H208.253V264.4C208.253 267.72 209.726 269.38 212.673 269.38C215.619 269.38 217.093 267.72 217.093 264.4V257.02H218.013V264.4C218.013 266.213 217.573 267.633 216.693 268.66ZM225.307 257.58C224.587 257.58 224 257.753 223.547 258.1C223.094 258.447 222.867 258.933 222.867 259.56C222.867 260.28 223.167 260.927 223.767 261.5C224.194 261.913 224.74 262.353 225.407 262.82C226.087 263.273 226.554 263.6 226.807 263.8C227.06 264 227.367 264.273 227.727 264.62C228.38 265.273 228.707 266.027 228.707 266.88C228.707 267.987 228.334 268.827 227.587 269.4C226.854 269.96 225.82 270.24 224.487 270.24C223.167 270.24 222.06 269.893 221.167 269.2L221.647 268.5C222.554 269.113 223.514 269.42 224.527 269.42C225.54 269.42 226.327 269.207 226.887 268.78C227.46 268.353 227.747 267.753 227.747 266.98C227.747 266.313 227.46 265.7 226.887 265.14C226.487 264.74 225.947 264.307 225.267 263.84C224.6 263.373 224.134 263.04 223.867 262.84C223.6 262.627 223.287 262.347 222.927 262C222.247 261.32 221.907 260.533 221.907 259.64C221.907 258.747 222.22 258.047 222.847 257.54C223.487 257.033 224.367 256.78 225.487 256.78C226.607 256.78 227.614 257 228.507 257.44L228.167 258.18C227.34 257.78 226.387 257.58 225.307 257.58ZM232.394 270V257.02H233.314V270H232.394ZM238.117 270V256.94H238.557L247.077 266.74C247.383 267.087 247.663 267.433 247.917 267.78C248.183 268.113 248.323 268.287 248.337 268.3C248.31 267.98 248.297 267.353 248.297 266.42V257.02H249.217V270.08H248.777L240.097 260.12L238.997 258.78C239.023 259.047 239.037 259.673 239.037 260.66V270H238.117ZM254.015 270V257.02H260.075V257.82H254.935V262.54H259.575V263.32H254.935V269.16H260.275V270H254.015ZM266.577 257.58C265.857 257.58 265.27 257.753 264.817 258.1C264.363 258.447 264.137 258.933 264.137 259.56C264.137 260.28 264.437 260.927 265.037 261.5C265.463 261.913 266.01 262.353 266.677 262.82C267.357 263.273 267.823 263.6 268.077 263.8C268.33 264 268.637 264.273 268.997 264.62C269.65 265.273 269.977 266.027 269.977 266.88C269.977 267.987 269.603 268.827 268.857 269.4C268.123 269.96 267.09 270.24 265.757 270.24C264.437 270.24 263.33 269.893 262.437 269.2L262.917 268.5C263.823 269.113 264.783 269.42 265.797 269.42C266.81 269.42 267.597 269.207 268.157 268.78C268.73 268.353 269.017 267.753 269.017 266.98C269.017 266.313 268.73 265.7 268.157 265.14C267.757 264.74 267.217 264.307 266.537 263.84C265.87 263.373 265.403 263.04 265.137 262.84C264.87 262.627 264.557 262.347 264.197 262C263.517 261.32 263.177 260.533 263.177 259.64C263.177 258.747 263.49 258.047 264.117 257.54C264.757 257.033 265.637 256.78 266.757 256.78C267.877 256.78 268.883 257 269.777 257.44L269.437 258.18C268.61 257.78 267.657 257.58 266.577 257.58ZM276.284 257.58C275.564 257.58 274.977 257.753 274.524 258.1C274.07 258.447 273.844 258.933 273.844 259.56C273.844 260.28 274.144 260.927 274.744 261.5C275.17 261.913 275.717 262.353 276.384 262.82C277.064 263.273 277.53 263.6 277.784 263.8C278.037 264 278.344 264.273 278.704 264.62C279.357 265.273 279.684 266.027 279.684 266.88C279.684 267.987 279.31 268.827 278.564 269.4C277.83 269.96 276.797 270.24 275.464 270.24C274.144 270.24 273.037 269.893 272.144 269.2L272.624 268.5C273.53 269.113 274.49 269.42 275.504 269.42C276.517 269.42 277.304 269.207 277.864 268.78C278.437 268.353 278.724 267.753 278.724 266.98C278.724 266.313 278.437 265.7 277.864 265.14C277.464 264.74 276.924 264.307 276.244 263.84C275.577 263.373 275.11 263.04 274.844 262.84C274.577 262.627 274.264 262.347 273.904 262C273.224 261.32 272.884 260.533 272.884 259.64C272.884 258.747 273.197 258.047 273.824 257.54C274.464 257.033 275.344 256.78 276.464 256.78C277.584 256.78 278.59 257 279.484 257.44L279.144 258.18C278.317 257.78 277.364 257.58 276.284 257.58ZM33.9037 300V285.7H34.8637V300H33.9037ZM39.8941 300V286.94H40.3341L48.8541 296.74C49.1608 297.087 49.4408 297.433 49.6941 297.78C49.9608 298.113 50.1008 298.287 50.1141 298.3C50.0875 297.98 50.0741 297.353 50.0741 296.42V287.02H50.9941V300.08H50.5541L41.8741 290.12L40.7741 288.78C40.8008 289.047 40.8141 289.673 40.8141 290.66V300H39.8941ZM55.7926 300V287.02H62.4526V287.82H56.7126V292.54H61.9526V293.32H56.7126V300H55.7926ZM71.5521 300.2C69.6988 300.2 68.1454 299.553 66.8921 298.26C65.6388 296.967 65.0121 295.387 65.0121 293.52C65.0121 291.64 65.6388 290.053 66.8921 288.76C68.1454 287.467 69.6988 286.82 71.5521 286.82C73.4054 286.82 74.9588 287.467 76.2121 288.76C77.4654 290.053 78.0921 291.64 78.0921 293.52C78.0921 295.387 77.4654 296.967 76.2121 298.26C74.9588 299.553 73.4054 300.2 71.5521 300.2ZM71.5521 287.64C69.9521 287.64 68.6188 288.207 67.5521 289.34C66.4988 290.473 65.9721 291.867 65.9721 293.52C65.9721 295.16 66.4988 296.547 67.5521 297.68C68.6188 298.8 69.9521 299.36 71.5521 299.36C73.1654 299.36 74.4988 298.8 75.5521 297.68C76.6054 296.547 77.1321 295.16 77.1321 293.52C77.1321 291.867 76.6054 290.473 75.5521 289.34C74.4988 288.207 73.1654 287.64 71.5521 287.64ZM82.1012 300V287.08C83.2478 286.987 84.2212 286.94 85.0212 286.94C86.2478 286.94 87.2612 287.26 88.0612 287.9C88.8612 288.527 89.2612 289.427 89.2612 290.6C89.2612 291.387 89.0345 292.113 88.5812 292.78C88.1278 293.447 87.6145 293.987 87.0412 294.4C88.6278 296.507 89.6078 297.767 89.9812 298.18C90.7412 298.967 91.5678 299.413 92.4612 299.52L92.4412 300.14C91.6945 300.127 91.0878 300.02 90.6212 299.82C90.1545 299.607 89.6878 299.253 89.2212 298.76C88.7678 298.267 87.7612 296.94 86.2012 294.78C85.1212 294.78 84.0612 294.747 83.0212 294.68V300H82.1012ZM85.7012 294.02C86.2212 294.02 86.7812 293.673 87.3812 292.98C87.9812 292.287 88.2812 291.48 88.2812 290.56C88.2812 289.64 87.9678 288.94 87.3412 288.46C86.7145 287.98 85.9012 287.74 84.9012 287.74C84.3678 287.74 83.7412 287.767 83.0212 287.82V293.92C83.9812 293.987 84.8745 294.02 85.7012 294.02ZM100.289 299.32H99.7491L95.9691 290.14C95.8091 289.78 95.6491 289.36 95.4891 288.88C95.4891 288.893 95.4758 288.967 95.4491 289.1C95.4358 289.233 95.4158 289.413 95.3891 289.64C95.3625 289.853 95.3358 290.033 95.3091 290.18L93.8091 300H92.9091L95.0291 286.94H95.5691L99.6091 296.52C99.9291 297.32 100.089 297.74 100.089 297.78C100.182 297.5 100.362 297.087 100.629 296.54L105.129 286.94H105.669L107.649 300H106.689L105.269 290.14C105.176 289.487 105.129 289.053 105.129 288.84L104.549 290.16L100.289 299.32ZM111.726 295.5L109.866 300H108.926L114.366 286.94H114.906L120.386 300H119.366L117.486 295.5H111.726ZM114.586 288.42C114.386 289.02 114.206 289.52 114.046 289.92L112.046 294.72H117.166L115.186 289.94C114.879 289.193 114.679 288.687 114.586 288.42ZM124.109 287.84H119.709V287.02H129.409V287.84H125.009V300H124.109V287.84ZM132.121 300V287.02H133.041V300H132.121ZM143.583 300.2C141.73 300.2 140.177 299.553 138.923 298.26C137.67 296.967 137.043 295.387 137.043 293.52C137.043 291.64 137.67 290.053 138.923 288.76C140.177 287.467 141.73 286.82 143.583 286.82C145.437 286.82 146.99 287.467 148.243 288.76C149.497 290.053 150.123 291.64 150.123 293.52C150.123 295.387 149.497 296.967 148.243 298.26C146.99 299.553 145.437 300.2 143.583 300.2ZM143.583 287.64C141.983 287.64 140.65 288.207 139.583 289.34C138.53 290.473 138.003 291.867 138.003 293.52C138.003 295.16 138.53 296.547 139.583 297.68C140.65 298.8 141.983 299.36 143.583 299.36C145.197 299.36 146.53 298.8 147.583 297.68C148.637 296.547 149.163 295.16 149.163 293.52C149.163 291.867 148.637 290.473 147.583 289.34C146.53 288.207 145.197 287.64 143.583 287.64ZM154.132 300V286.94H154.572L163.092 296.74C163.399 297.087 163.679 297.433 163.932 297.78C164.199 298.113 164.339 298.287 164.352 298.3C164.326 297.98 164.312 297.353 164.312 296.42V287.02H165.232V300.08H164.792L156.112 290.12L155.012 288.78C155.039 289.047 155.052 289.673 155.052 290.66V300H154.132ZM180.118 286.54H175.278V285.7H185.918V286.54H181.078V300H180.118V286.54ZM188.136 300V287.02H194.196V287.82H189.056V292.54H193.696V293.32H189.056V299.16H194.396V300H188.136ZM208.178 299.36C207.178 299.92 205.784 300.2 203.998 300.2C202.224 300.2 200.658 299.56 199.298 298.28C197.951 297 197.278 295.413 197.278 293.52C197.278 291.613 197.864 290.02 199.038 288.74C200.224 287.46 201.751 286.82 203.618 286.82C205.124 286.82 206.598 287.053 208.038 287.52L207.798 288.28C206.411 287.853 204.978 287.64 203.498 287.64C202.018 287.64 200.771 288.207 199.758 289.34C198.758 290.46 198.258 291.84 198.258 293.48C198.258 295.107 198.838 296.493 199.998 297.64C201.171 298.787 202.524 299.36 204.058 299.36C205.591 299.36 206.864 299.147 207.878 298.72L208.178 299.36ZM221.397 300V293.44H212.377V300H211.457V287.02H212.377V292.62H221.397V287.02H222.317V300H221.397ZM227.121 300V286.94H227.561L236.081 296.74C236.387 297.087 236.667 297.433 236.921 297.78C237.187 298.113 237.327 298.287 237.341 298.3C237.314 297.98 237.301 297.353 237.301 296.42V287.02H238.221V300.08H237.781L229.101 290.12L228.001 288.78C228.027 289.047 228.041 289.673 228.041 290.66V300H227.121ZM248.759 300.2C246.906 300.2 245.352 299.553 244.099 298.26C242.846 296.967 242.219 295.387 242.219 293.52C242.219 291.64 242.846 290.053 244.099 288.76C245.352 287.467 246.906 286.82 248.759 286.82C250.612 286.82 252.166 287.467 253.419 288.76C254.672 290.053 255.299 291.64 255.299 293.52C255.299 295.387 254.672 296.967 253.419 298.26C252.166 299.553 250.612 300.2 248.759 300.2ZM248.759 287.64C247.159 287.64 245.826 288.207 244.759 289.34C243.706 290.473 243.179 291.867 243.179 293.52C243.179 295.16 243.706 296.547 244.759 297.68C245.826 298.8 247.159 299.36 248.759 299.36C250.372 299.36 251.706 298.8 252.759 297.68C253.812 296.547 254.339 295.16 254.339 293.52C254.339 291.867 253.812 290.473 252.759 289.34C251.706 288.207 250.372 287.64 248.759 287.64ZM259.308 300V287.02H260.228V299.16H266.188V300H259.308ZM273.857 300.2C272.003 300.2 270.45 299.553 269.197 298.26C267.943 296.967 267.317 295.387 267.317 293.52C267.317 291.64 267.943 290.053 269.197 288.76C270.45 287.467 272.003 286.82 273.857 286.82C275.71 286.82 277.263 287.467 278.517 288.76C279.77 290.053 280.397 291.64 280.397 293.52C280.397 295.387 279.77 296.967 278.517 298.26C277.263 299.553 275.71 300.2 273.857 300.2ZM273.857 287.64C272.257 287.64 270.923 288.207 269.857 289.34C268.803 290.473 268.277 291.867 268.277 293.52C268.277 295.16 268.803 296.547 269.857 297.68C270.923 298.8 272.257 299.36 273.857 299.36C275.47 299.36 276.803 298.8 277.857 297.68C278.91 296.547 279.437 295.16 279.437 293.52C279.437 291.867 278.91 290.473 277.857 289.34C276.803 288.207 275.47 287.64 273.857 287.64ZM289.826 287.64C288.346 287.64 287.099 288.207 286.086 289.34C285.086 290.46 284.586 291.84 284.586 293.48C284.586 295.12 285.153 296.513 286.286 297.66C287.419 298.793 288.753 299.36 290.286 299.36C291.833 299.36 293.033 299.18 293.886 298.82V293.48H294.806V299.24C293.766 299.88 292.293 300.2 290.386 300.2C288.479 300.2 286.873 299.553 285.566 298.26C284.259 296.967 283.606 295.38 283.606 293.5C283.606 291.607 284.193 290.02 285.366 288.74C286.553 287.46 288.079 286.82 289.946 286.82C291.453 286.82 292.926 287.053 294.366 287.52L294.126 288.28C292.739 287.853 291.306 287.64 289.826 287.64ZM302.811 300H301.911V295.36L297.011 287.02H298.111L301.891 293.46C302.185 294.047 302.351 294.36 302.391 294.4C302.471 294.227 302.638 293.92 302.891 293.48L306.671 287.02H307.711L302.811 295.4V300Z" fill="white"/>
<path d="M40.5263 120.696C40.3129 119.907 40.0783 119.32 39.8223 118.936C39.5876 118.531 39.2569 118.253 38.8303 118.104C38.4036 117.933 37.8063 117.848 37.0383 117.848H35.5983C35.1503 117.848 34.8516 118.008 34.7023 118.328C34.5743 118.627 34.5103 119.277 34.5103 120.28V134.744C34.5103 135.725 34.6489 136.408 34.9263 136.792C35.2036 137.176 35.7476 137.485 36.5583 137.72L37.2943 137.912L36.9103 139H29.9023L29.4863 138.488L29.9023 137.912C30.4356 137.208 30.8089 136.461 31.0223 135.672C31.2356 134.883 31.3423 133.848 31.3423 132.568V120.28C31.3423 119.277 31.2676 118.627 31.1183 118.328C30.9903 118.008 30.7023 117.848 30.2543 117.848H28.8143C28.0463 117.848 27.4489 117.933 27.0223 118.104C26.5956 118.253 26.2543 118.531 25.9983 118.936C25.7636 119.32 25.5396 119.907 25.3263 120.696L25.1343 121.432L24.0463 121.048V115.352L24.5583 114.936L25.1343 115.352C25.7316 115.8 26.9476 116.024 28.7823 116.024H37.0703C38.9049 116.024 40.1209 115.8 40.7183 115.352L41.2943 114.936L41.8063 115.352V121.048L40.7183 121.432L40.5263 120.696ZM47.4308 137.88C48.3054 137.88 49.0201 137.645 49.5748 137.176C50.1508 136.685 50.4388 136.056 50.4388 135.288C50.4388 134.605 50.1401 134.051 49.5428 133.624C48.9668 133.197 48.1028 132.739 46.9508 132.248C45.9054 131.821 45.0308 131.405 44.3268 131C43.6441 130.595 43.0574 130.072 42.5668 129.432C42.0761 128.771 41.8307 127.96 41.8307 127C41.8307 125.72 42.3748 124.685 43.4628 123.896C44.5721 123.085 45.9694 122.68 47.6548 122.68C49.1694 122.68 50.4281 122.979 51.4308 123.576C52.4334 124.173 52.9348 124.973 52.9348 125.976C52.9348 126.787 52.6788 127.459 52.1668 127.992C51.6761 128.504 51.0361 128.76 50.2468 128.76C49.7988 128.76 49.5748 128.621 49.5748 128.344C49.5748 128.259 49.6494 128.045 49.7988 127.704C49.9694 127.341 50.0548 126.957 50.0548 126.552C50.0548 125.763 49.7881 125.176 49.2548 124.792C48.7214 124.408 48.1134 124.216 47.4308 124.216C46.5561 124.216 45.8628 124.44 45.3508 124.888C44.8601 125.315 44.6148 125.869 44.6148 126.552C44.6148 127.341 44.9241 127.981 45.5428 128.472C46.1828 128.941 47.1214 129.432 48.3588 129.944C49.3828 130.371 50.2361 130.776 50.9188 131.16C51.6014 131.523 52.1774 131.992 52.6468 132.568C53.1161 133.144 53.3508 133.837 53.3508 134.648C53.3508 136.099 52.7748 137.261 51.6228 138.136C50.4708 139.011 48.9348 139.448 47.0148 139.448C45.3934 139.448 44.0601 139.085 43.0148 138.36C41.9694 137.635 41.4468 136.664 41.4468 135.448C41.4468 134.723 41.6921 134.125 42.1828 133.656C42.6734 133.187 43.3134 132.952 44.1028 132.952C44.5508 132.952 44.7748 133.08 44.7748 133.336C44.7748 133.4 44.7108 133.603 44.5828 133.944C44.4548 134.264 44.3908 134.659 44.3908 135.128C44.3908 136.024 44.7001 136.707 45.3188 137.176C45.9588 137.645 46.6628 137.88 47.4308 137.88ZM58.581 117.432C58.581 117.176 58.5277 116.995 58.421 116.888C58.3357 116.781 58.1757 116.728 57.941 116.728H56.533L56.245 115.896C56.8637 115.341 57.5677 114.883 58.357 114.52C59.1677 114.157 59.8717 113.976 60.469 113.976C60.7677 113.976 61.013 114.072 61.205 114.264C61.397 114.456 61.493 114.701 61.493 115V127.448C62.0477 126.061 62.8797 124.92 63.989 124.024C65.0983 123.128 66.261 122.68 67.477 122.68C69.0343 122.68 70.133 123.139 70.773 124.056C71.4343 124.973 71.765 126.456 71.765 128.504V136.248C71.765 136.973 72.085 137.336 72.725 137.336C73.2583 137.336 73.7917 137.112 74.325 136.664L74.933 137.496C74.3783 138.115 73.781 138.605 73.141 138.968C72.501 139.331 71.9037 139.512 71.349 139.512C70.4743 139.512 69.845 139.245 69.461 138.712C69.077 138.179 68.885 137.315 68.885 136.12V128.504C68.885 127.373 68.6717 126.541 68.245 126.008C67.8397 125.453 67.1357 125.176 66.133 125.176C65.2157 125.176 64.405 125.539 63.701 126.264C63.0183 126.989 62.4743 128.013 62.069 129.336C61.685 130.659 61.493 132.173 61.493 133.88C61.493 134.883 61.5677 135.683 61.717 136.28C61.8663 136.877 62.133 137.453 62.517 138.008L62.901 138.52L62.517 139H56.917L56.565 138.008L57.237 137.848C57.7703 137.72 58.1223 137.496 58.293 137.176C58.485 136.835 58.581 136.259 58.581 135.448V117.432ZM90.6985 136.6C89.9092 137.517 88.9705 138.221 87.8825 138.712C86.7945 139.203 85.6212 139.448 84.3625 139.448C82.8905 139.448 81.5998 139.107 80.4905 138.424C79.3812 137.741 78.5172 136.781 77.8985 135.544C77.3012 134.307 77.0025 132.877 77.0025 131.256C77.0025 129.549 77.3438 128.056 78.0265 126.776C78.7092 125.475 79.6692 124.472 80.9065 123.768C82.1652 123.043 83.6265 122.68 85.2905 122.68C86.4638 122.68 87.4558 122.904 88.2665 123.352C89.0985 123.779 89.7172 124.355 90.1225 125.08C90.5278 125.784 90.7305 126.552 90.7305 127.384C90.7305 128.28 90.4852 129.144 89.9945 129.976C89.5252 130.808 88.8318 131.491 87.9145 132.024C86.9972 132.536 85.8985 132.792 84.6185 132.792C83.9358 132.792 83.1785 132.664 82.3465 132.408C81.5145 132.152 81.0985 131.779 81.0985 131.288C81.0985 131.117 81.1412 130.957 81.2265 130.808C81.3332 130.659 81.4505 130.584 81.5785 130.584C81.6425 130.584 81.8558 130.659 82.2185 130.808C82.5812 130.936 83.0505 131 83.6265 131C84.9065 131 85.8985 130.637 86.6025 129.912C87.3278 129.187 87.6905 128.333 87.6905 127.352C87.6905 126.52 87.4238 125.805 86.8905 125.208C86.3572 124.589 85.6105 124.28 84.6505 124.28C83.2852 124.28 82.2185 124.888 81.4505 126.104C80.6825 127.299 80.2985 129.016 80.2985 131.256C80.2985 133.155 80.7038 134.648 81.5145 135.736C82.3252 136.803 83.4985 137.336 85.0345 137.336C86.9118 137.336 88.4692 136.728 89.7065 135.512C89.7918 135.427 89.8878 135.384 89.9945 135.384C90.1652 135.384 90.3465 135.491 90.5385 135.704C90.7305 135.896 90.8265 136.099 90.8265 136.312C90.8265 136.419 90.7838 136.515 90.6985 136.6ZM98.676 124.696C100.063 123.352 101.599 122.68 103.284 122.68C104.607 122.68 105.78 123.011 106.804 123.672C107.849 124.333 108.66 125.251 109.236 126.424C109.812 127.597 110.1 128.931 110.1 130.424C110.1 132.131 109.791 133.677 109.172 135.064C108.575 136.429 107.743 137.507 106.676 138.296C105.609 139.064 104.404 139.448 103.06 139.448C101.801 139.448 100.735 139.16 99.86 138.584C99.668 138.456 99.572 138.264 99.572 138.008C99.572 137.795 99.604 137.613 99.668 137.464C99.7533 137.293 99.8813 137.208 100.052 137.208C100.137 137.208 100.372 137.293 100.756 137.464C101.161 137.635 101.684 137.72 102.324 137.72C103.156 137.72 103.903 137.432 104.564 136.856C105.247 136.28 105.769 135.491 106.132 134.488C106.516 133.464 106.708 132.323 106.708 131.064C106.708 129.848 106.516 128.771 106.132 127.832C105.769 126.872 105.247 126.125 104.564 125.592C103.903 125.059 103.135 124.792 102.26 124.792C100.959 124.792 99.764 125.208 98.676 126.04V143.96C98.676 144.771 98.7613 145.336 98.932 145.656C99.124 145.997 99.4867 146.232 100.02 146.36L100.692 146.52L100.34 147.512H94.772L94.388 147.032L94.772 146.52C95.156 145.965 95.4227 145.389 95.572 144.792C95.7213 144.195 95.796 143.395 95.796 142.392V126.808C95.796 126.467 95.7427 126.221 95.636 126.072C95.5507 125.923 95.38 125.816 95.124 125.752L93.46 125.4V124.344C93.8013 124.045 94.452 123.757 95.412 123.48C96.372 123.203 97.204 123.064 97.908 123.064C98.42 123.064 98.676 123.555 98.676 124.536V124.696ZM124.363 136.056C123.489 137.293 122.593 138.168 121.675 138.68C120.758 139.192 119.766 139.448 118.699 139.448C117.675 139.448 116.726 139.16 115.851 138.584C114.977 137.987 114.273 137.101 113.739 135.928C113.227 134.755 112.971 133.336 112.971 131.672C112.971 129.837 113.302 128.248 113.963 126.904C114.646 125.539 115.606 124.493 116.843 123.768C118.102 123.043 119.574 122.68 121.259 122.68C122.091 122.68 123.265 122.819 124.779 123.096C126.059 123.309 127.019 123.437 127.659 123.48L128.011 123.896L127.627 124.472C127.478 124.685 127.371 124.888 127.307 125.08C127.243 125.251 127.211 125.464 127.211 125.72V136.184C127.211 136.845 127.531 137.176 128.171 137.176C128.705 137.176 129.238 136.984 129.771 136.6L130.379 137.432C129.825 138.051 129.227 138.541 128.587 138.904C127.947 139.267 127.361 139.448 126.827 139.448C125.953 139.448 125.323 139.181 124.939 138.648C124.555 138.115 124.363 137.251 124.363 136.056ZM116.331 131.064C116.331 133.091 116.673 134.584 117.355 135.544C118.059 136.504 118.934 136.984 119.979 136.984C120.833 136.984 121.633 136.749 122.379 136.28C123.126 135.789 123.787 135.053 124.363 134.072V125.432C123.382 124.771 122.337 124.44 121.227 124.44C119.67 124.44 118.465 125.027 117.611 126.2C116.758 127.352 116.331 128.973 116.331 131.064ZM137.372 133.88C137.372 134.883 137.446 135.683 137.596 136.28C137.745 136.877 138.012 137.453 138.396 138.008L138.78 138.52L138.396 139H132.796L132.444 138.008L133.116 137.848C133.649 137.72 134.001 137.496 134.172 137.176C134.364 136.835 134.46 136.259 134.46 135.448V126.456C134.46 126.2 134.406 126.019 134.3 125.912C134.214 125.805 134.054 125.752 133.82 125.752H132.412L132.124 124.92C132.742 124.365 133.446 123.907 134.236 123.544C135.046 123.181 135.75 123 136.348 123C136.646 123 136.892 123.096 137.084 123.288C137.276 123.48 137.372 123.725 137.372 124.024V127.448C137.926 126.061 138.758 124.92 139.868 124.024C140.977 123.128 142.14 122.68 143.356 122.68C144.849 122.68 145.937 123.139 146.62 124.056C147.302 124.973 147.644 126.435 147.644 128.44V136.184C147.644 136.909 147.964 137.272 148.604 137.272C149.094 137.272 149.628 137.048 150.204 136.6L150.812 137.432C150.257 138.051 149.66 138.541 149.02 138.904C148.38 139.267 147.782 139.448 147.228 139.448C146.353 139.448 145.724 139.181 145.34 138.648C144.956 138.115 144.764 137.251 144.764 136.056V128.44C144.764 126.264 143.846 125.176 142.012 125.176C141.094 125.176 140.284 125.539 139.58 126.264C138.897 126.989 138.353 128.013 137.948 129.336C137.564 130.659 137.372 132.173 137.372 133.88ZM160.91 146.232C162.232 146.232 163.203 145.688 163.822 144.6C164.44 143.512 164.75 142.051 164.75 140.216V135.128C163.875 136.365 162.979 137.24 162.062 137.752C161.144 138.264 160.152 138.52 159.086 138.52C158.062 138.52 157.112 138.264 156.238 137.752C155.363 137.219 154.659 136.44 154.126 135.416C153.614 134.392 153.358 133.144 153.358 131.672C153.358 129.837 153.688 128.248 154.35 126.904C155.032 125.539 155.992 124.493 157.23 123.768C158.488 123.043 159.96 122.68 161.646 122.68C162.478 122.68 163.651 122.819 165.166 123.096C166.446 123.309 167.406 123.437 168.046 123.48L168.398 123.896L168.014 124.472C167.864 124.685 167.758 124.888 167.694 125.08C167.63 125.251 167.597 125.464 167.597 125.72V139.704C167.597 142.328 166.958 144.344 165.678 145.752C164.419 147.181 162.691 147.896 160.494 147.896C159.32 147.896 158.318 147.672 157.486 147.224C156.654 146.797 156.035 146.232 155.63 145.528C155.224 144.845 155.022 144.109 155.022 143.32C155.022 142.253 155.384 141.336 156.11 140.568C156.835 139.821 157.827 139.448 159.086 139.448C159.299 139.448 159.448 139.48 159.534 139.544C159.64 139.629 159.694 139.715 159.694 139.8C159.694 139.885 159.544 140.088 159.246 140.408C158.947 140.728 158.68 141.112 158.446 141.56C158.232 142.008 158.126 142.573 158.126 143.256C158.126 144.109 158.371 144.813 158.862 145.368C159.374 145.944 160.056 146.232 160.91 146.232ZM156.718 131.064C156.718 132.771 157.059 134.029 157.742 134.84C158.446 135.651 159.32 136.056 160.366 136.056C161.219 136.056 162.019 135.821 162.766 135.352C163.512 134.861 164.174 134.125 164.75 133.144V125.432C163.768 124.771 162.723 124.44 161.614 124.44C160.056 124.44 158.851 125.027 157.998 126.2C157.144 127.352 156.718 128.973 156.718 131.064ZM196.62 120.696C196.407 119.907 196.172 119.32 195.916 118.936C195.681 118.531 195.351 118.253 194.924 118.104C194.497 117.933 193.9 117.848 193.132 117.848H191.692C191.244 117.848 190.945 118.008 190.796 118.328C190.668 118.627 190.604 119.277 190.604 120.28V134.744C190.604 135.725 190.743 136.408 191.02 136.792C191.297 137.176 191.841 137.485 192.652 137.72L193.388 137.912L193.004 139H185.996L185.58 138.488L185.996 137.912C186.529 137.208 186.903 136.461 187.116 135.672C187.329 134.883 187.436 133.848 187.436 132.568V120.28C187.436 119.277 187.361 118.627 187.212 118.328C187.084 118.008 186.796 117.848 186.348 117.848H184.908C184.14 117.848 183.543 117.933 183.116 118.104C182.689 118.253 182.348 118.531 182.092 118.936C181.857 119.32 181.633 119.907 181.42 120.696L181.228 121.432L180.14 121.048V115.352L180.652 114.936L181.228 115.352C181.825 115.8 183.041 116.024 184.876 116.024H193.164C194.999 116.024 196.215 115.8 196.812 115.352L197.388 114.936L197.9 115.352V121.048L196.812 121.432L196.62 120.696ZM203.525 137.88C204.399 137.88 205.114 137.645 205.669 137.176C206.245 136.685 206.533 136.056 206.533 135.288C206.533 134.605 206.234 134.051 205.637 133.624C205.061 133.197 204.197 132.739 203.045 132.248C201.999 131.821 201.125 131.405 200.421 131C199.738 130.595 199.151 130.072 198.661 129.432C198.17 128.771 197.924 127.96 197.924 127C197.924 125.72 198.469 124.685 199.557 123.896C200.666 123.085 202.063 122.68 203.749 122.68C205.263 122.68 206.522 122.979 207.525 123.576C208.527 124.173 209.029 124.973 209.029 125.976C209.029 126.787 208.773 127.459 208.261 127.992C207.77 128.504 207.13 128.76 206.341 128.76C205.893 128.76 205.669 128.621 205.669 128.344C205.669 128.259 205.743 128.045 205.893 127.704C206.063 127.341 206.149 126.957 206.149 126.552C206.149 125.763 205.882 125.176 205.349 124.792C204.815 124.408 204.207 124.216 203.525 124.216C202.65 124.216 201.957 124.44 201.445 124.888C200.954 125.315 200.709 125.869 200.709 126.552C200.709 127.341 201.018 127.981 201.637 128.472C202.277 128.941 203.215 129.432 204.453 129.944C205.477 130.371 206.33 130.776 207.013 131.16C207.695 131.523 208.271 131.992 208.741 132.568C209.21 133.144 209.445 133.837 209.445 134.648C209.445 136.099 208.869 137.261 207.717 138.136C206.565 139.011 205.029 139.448 203.109 139.448C201.487 139.448 200.154 139.085 199.109 138.36C198.063 137.635 197.541 136.664 197.541 135.448C197.541 134.723 197.786 134.125 198.277 133.656C198.767 133.187 199.407 132.952 200.197 132.952C200.645 132.952 200.869 133.08 200.869 133.336C200.869 133.4 200.805 133.603 200.677 133.944C200.549 134.264 200.485 134.659 200.485 135.128C200.485 136.024 200.794 136.707 201.413 137.176C202.053 137.645 202.757 137.88 203.525 137.88ZM214.675 117.432C214.675 117.176 214.621 116.995 214.515 116.888C214.429 116.781 214.269 116.728 214.035 116.728H212.627L212.339 115.896C212.957 115.341 213.661 114.883 214.451 114.52C215.261 114.157 215.965 113.976 216.563 113.976C216.861 113.976 217.107 114.072 217.299 114.264C217.491 114.456 217.587 114.701 217.587 115V127.448C218.141 126.061 218.973 124.92 220.083 124.024C221.192 123.128 222.355 122.68 223.571 122.68C225.128 122.68 226.227 123.139 226.867 124.056C227.528 124.973 227.859 126.456 227.859 128.504V136.248C227.859 136.973 228.179 137.336 228.819 137.336C229.352 137.336 229.885 137.112 230.419 136.664L231.027 137.496C230.472 138.115 229.875 138.605 229.235 138.968C228.595 139.331 227.997 139.512 227.443 139.512C226.568 139.512 225.939 139.245 225.555 138.712C225.171 138.179 224.979 137.315 224.979 136.12V128.504C224.979 127.373 224.765 126.541 224.339 126.008C223.933 125.453 223.229 125.176 222.227 125.176C221.309 125.176 220.499 125.539 219.795 126.264C219.112 126.989 218.568 128.013 218.163 129.336C217.779 130.659 217.587 132.173 217.587 133.88C217.587 134.883 217.661 135.683 217.811 136.28C217.96 136.877 218.227 137.453 218.611 138.008L218.995 138.52L218.611 139H213.011L212.659 138.008L213.331 137.848C213.864 137.72 214.216 137.496 214.387 137.176C214.579 136.835 214.675 136.259 214.675 135.448V117.432ZM240.584 137.368C241.267 137.368 241.875 137.005 242.408 136.28C242.942 135.533 243.347 134.563 243.624 133.368C243.923 132.152 244.072 130.883 244.072 129.56C244.072 128.536 243.955 127.544 243.72 126.584C243.486 125.624 243.134 124.771 242.664 124.024L242.344 123.512L242.728 123.096L246.472 122.68C246.579 124.003 246.632 125.133 246.632 126.072C246.632 127.053 246.579 128.099 246.472 129.208L247.144 133.688C247.336 135.011 247.624 135.96 248.008 136.536C248.392 137.091 248.958 137.368 249.704 137.368C250.387 137.368 250.995 137.005 251.528 136.28C252.062 135.533 252.467 134.563 252.744 133.368C253.043 132.152 253.192 130.883 253.192 129.56C253.192 128.536 253.075 127.544 252.84 126.584C252.606 125.624 252.254 124.771 251.784 124.024L251.464 123.512L251.848 123.096L255.592 122.68C255.699 124.003 255.752 125.133 255.752 126.072C255.752 128.909 255.464 131.341 254.888 133.368C254.312 135.373 253.544 136.888 252.584 137.912C251.624 138.936 250.59 139.448 249.48 139.448C248.243 139.448 247.272 139.149 246.568 138.552C245.886 137.933 245.352 136.888 244.968 135.416C244.392 136.739 243.688 137.741 242.856 138.424C242.046 139.107 241.171 139.448 240.232 139.448C239.123 139.448 238.227 139.245 237.544 138.84C236.883 138.413 236.35 137.741 235.944 136.824C235.539 135.885 235.219 134.584 234.984 132.92L233.992 126.136C233.95 125.859 233.886 125.677 233.8 125.592C233.715 125.485 233.566 125.432 233.352 125.432H231.944L231.656 124.6C232.211 124.045 232.872 123.587 233.64 123.224C234.408 122.861 235.091 122.68 235.688 122.68C236.264 122.68 236.606 123.021 236.712 123.704L238.152 133.688C238.344 135.011 238.622 135.96 238.984 136.536C239.347 137.091 239.88 137.368 240.584 137.368ZM270.52 136.056C269.645 137.293 268.749 138.168 267.832 138.68C266.914 139.192 265.922 139.448 264.856 139.448C263.832 139.448 262.882 139.16 262.008 138.584C261.133 137.987 260.429 137.101 259.896 135.928C259.384 134.755 259.128 133.336 259.128 131.672C259.128 129.837 259.458 128.248 260.12 126.904C260.802 125.539 261.762 124.493 263 123.768C264.258 123.043 265.73 122.68 267.416 122.68C268.248 122.68 269.421 122.819 270.936 123.096C272.216 123.309 273.176 123.437 273.816 123.48L274.168 123.896L273.784 124.472C273.634 124.685 273.528 124.888 273.464 125.08C273.4 125.251 273.368 125.464 273.368 125.72V136.184C273.368 136.845 273.688 137.176 274.328 137.176C274.861 137.176 275.394 136.984 275.928 136.6L276.536 137.432C275.981 138.051 275.384 138.541 274.744 138.904C274.104 139.267 273.517 139.448 272.984 139.448C272.109 139.448 271.48 139.181 271.096 138.648C270.712 138.115 270.52 137.251 270.52 136.056ZM262.488 131.064C262.488 133.091 262.829 134.584 263.512 135.544C264.216 136.504 265.09 136.984 266.135 136.984C266.989 136.984 267.789 136.749 268.536 136.28C269.282 135.789 269.944 135.053 270.52 134.072V125.432C269.538 124.771 268.493 124.44 267.384 124.44C265.826 124.44 264.621 125.027 263.768 126.2C262.914 127.352 262.488 128.973 262.488 131.064ZM283.016 136.184C283.016 136.909 283.336 137.272 283.976 137.272C284.509 137.272 285.043 137.048 285.576 136.6L286.184 137.432C285.629 138.051 285.032 138.541 284.392 138.904C283.752 139.267 283.155 139.448 282.6 139.448C281.725 139.448 281.096 139.181 280.712 138.648C280.328 138.115 280.136 137.251 280.136 136.056V117.432C280.136 117.176 280.083 116.995 279.976 116.888C279.891 116.781 279.731 116.728 279.496 116.728H278.088L277.8 115.896C278.419 115.341 279.123 114.883 279.912 114.52C280.701 114.157 281.405 113.976 282.024 113.976C282.323 113.976 282.568 114.072 282.76 114.264C282.952 114.456 283.048 114.701 283.048 115L283.016 136.184ZM301.792 136.6C301.003 137.517 300.064 138.221 298.976 138.712C297.888 139.203 296.715 139.448 295.456 139.448C293.984 139.448 292.694 139.107 291.584 138.424C290.475 137.741 289.611 136.781 288.992 135.544C288.395 134.307 288.096 132.877 288.096 131.256C288.096 129.549 288.438 128.056 289.12 126.776C289.803 125.475 290.763 124.472 292 123.768C293.259 123.043 294.72 122.68 296.384 122.68C297.558 122.68 298.55 122.904 299.36 123.352C300.192 123.779 300.811 124.355 301.216 125.08C301.622 125.784 301.824 126.552 301.824 127.384C301.824 128.28 301.579 129.144 301.088 129.976C300.619 130.808 299.926 131.491 299.008 132.024C298.091 132.536 296.992 132.792 295.712 132.792C295.03 132.792 294.272 132.664 293.44 132.408C292.608 132.152 292.192 131.779 292.192 131.288C292.192 131.117 292.235 130.957 292.32 130.808C292.427 130.659 292.544 130.584 292.672 130.584C292.736 130.584 292.95 130.659 293.312 130.808C293.675 130.936 294.144 131 294.72 131C296 131 296.992 130.637 297.696 129.912C298.422 129.187 298.784 128.333 298.784 127.352C298.784 126.52 298.518 125.805 297.984 125.208C297.451 124.589 296.704 124.28 295.744 124.28C294.379 124.28 293.312 124.888 292.544 126.104C291.776 127.299 291.392 129.016 291.392 131.256C291.392 133.155 291.798 134.648 292.608 135.736C293.419 136.803 294.592 137.336 296.128 137.336C298.006 137.336 299.563 136.728 300.8 135.512C300.886 135.427 300.982 135.384 301.088 135.384C301.259 135.384 301.44 135.491 301.632 135.704C301.824 135.896 301.92 136.099 301.92 136.312C301.92 136.419 301.878 136.515 301.792 136.6Z" fill="white"/>
<path fill-rule="evenodd" clip-rule="evenodd" d="M236.78 40.891C239.389 44.8165 241.781 50.8138 243.955 58.883L245.912 66.4069L257 62.4814V4.25266L251.782 0L245.912 4.25266C239.824 8.83244 227.431 11.1223 208.733 11.1223H124.267C105.569 11.1223 93.176 8.83244 87.0883 4.25266L81.218 0L76 4.25266V62.4814L87.0883 66.4069L89.045 58.883C91.2192 50.8138 93.5021 44.8165 95.8937 40.891C98.5027 36.7473 101.981 33.9122 106.33 32.3856C110.678 30.641 116.766 29.7686 124.593 29.7686H139.268C143.834 29.7686 146.769 31.4043 148.074 34.6755C149.596 37.7287 150.357 44.3803 150.357 54.6303V107H182.643V54.6303C182.643 44.3803 183.295 37.7287 184.6 34.6755C186.122 31.4043 189.166 29.7686 193.732 29.7686H208.407C216.234 29.7686 222.322 30.641 226.67 32.3856C231.019 33.9122 234.389 36.7473 236.78 40.891ZM182.643 157H150.357V180.247C150.357 193.332 149.27 203.91 147.095 211.979C144.921 220.048 141.117 227.681 135.681 234.878L131.441 240.766L135.681 246H207.103L211.016 234.878L203.515 232.915C195.253 230.516 189.709 227.354 186.883 223.428C184.056 219.503 182.643 212.524 182.643 202.492V157Z" fill="white"/>
</svg>
