<svg width="350" height="350" viewBox="0 0 350 350" fill="none" xmlns="http://www.w3.org/2000/svg">
<circle cx="175" cy="175" r="175" fill="#023047"/>
<path d="M209.024 277.876C207.442 276.514 206.227 274.894 205.38 273.017C204.534 271.14 204.11 269.115 204.11 266.943C204.11 264.404 204.699 262.177 205.877 260.263C207.055 258.349 208.711 256.858 210.846 255.79C212.981 254.76 215.447 254.245 218.245 254.245C221.19 254.245 223.766 254.833 225.975 256.011C228.22 257.189 229.95 258.846 231.165 260.98C232.416 263.152 233.042 265.674 233.042 268.545C233.042 270.569 232.655 272.281 231.882 273.679C231.146 275.115 230.152 276.182 228.901 276.882C227.686 277.581 226.361 277.931 224.926 277.931C223.38 277.931 221.889 277.507 220.453 276.661C219.018 275.851 217.84 274.655 216.92 273.072C216.036 271.489 215.595 269.594 215.595 267.385C215.595 266.207 215.816 264.901 216.257 263.465C216.699 262.03 217.343 261.312 218.19 261.312C218.484 261.312 218.76 261.385 219.018 261.533C219.275 261.717 219.404 261.919 219.404 262.14C219.404 262.25 219.275 262.618 219.018 263.244C218.797 263.87 218.687 264.68 218.687 265.674C218.687 267.882 219.312 269.594 220.564 270.808C221.815 272.06 223.288 272.686 224.981 272.686C226.416 272.686 227.649 272.225 228.68 271.305C229.747 270.385 230.281 269.097 230.281 267.44C230.281 265.085 229.232 263.244 227.134 261.919C225.073 260.594 222.11 259.931 218.245 259.931C214.969 259.931 212.392 260.631 210.515 262.03C208.675 263.428 207.754 265.453 207.754 268.103C207.754 271.342 208.803 274.029 210.902 276.164C211.049 276.311 211.122 276.477 211.122 276.661C211.122 276.955 210.938 277.268 210.57 277.599C210.239 277.931 209.889 278.096 209.521 278.096C209.337 278.096 209.172 278.023 209.024 277.876Z" fill="white"/>
<path d="M209.742 245.479C208.491 245.479 207.865 246.031 207.865 247.135C207.865 248.056 208.251 248.976 209.024 249.896L207.589 250.945C206.521 249.988 205.675 248.957 205.049 247.853C204.423 246.749 204.11 245.718 204.11 244.761C204.11 243.252 204.571 242.166 205.491 241.504C206.411 240.841 207.902 240.51 209.963 240.51L242.097 240.51C242.538 240.51 242.851 240.418 243.035 240.234C243.219 240.087 243.311 239.811 243.311 239.406L243.311 236.976L244.747 236.479C245.704 237.547 246.495 238.762 247.121 240.123C247.747 241.485 248.06 242.7 248.06 243.768C248.06 244.283 247.894 244.706 247.563 245.037C247.232 245.369 246.808 245.534 246.293 245.534L209.742 245.479Z" fill="white"/>
<path d="M209.963 223.918C207.828 222.409 206.319 220.863 205.436 219.28C204.552 217.697 204.11 215.986 204.11 214.145C204.11 212.378 204.607 210.74 205.601 209.231C206.632 207.722 208.159 206.507 210.184 205.587C212.208 204.704 214.656 204.262 217.527 204.262C220.693 204.262 223.435 204.833 225.754 205.974C228.11 207.151 229.913 208.808 231.165 210.943C232.416 213.114 233.042 215.654 233.042 218.562C233.042 219.998 232.803 222.022 232.324 224.635C231.956 226.844 231.735 228.5 231.662 229.605L230.944 230.212L229.95 229.549C229.582 229.292 229.232 229.108 228.901 228.997C228.606 228.887 228.238 228.832 227.797 228.832L209.742 228.832C208.601 228.832 208.031 229.384 208.031 230.488C208.031 231.408 208.362 232.328 209.024 233.249L207.589 234.298C206.521 233.341 205.675 232.31 205.049 231.206C204.423 230.102 204.11 229.089 204.11 228.169C204.11 226.66 204.571 225.574 205.491 224.912C206.411 224.249 207.902 223.918 209.963 223.918ZM218.576 210.059C215.079 210.059 212.503 210.648 210.846 211.826C209.19 213.041 208.362 214.55 208.362 216.354C208.362 217.826 208.767 219.206 209.576 220.495C210.423 221.783 211.693 222.924 213.386 223.918L228.294 223.918C229.435 222.225 230.005 220.421 230.005 218.507C230.005 215.82 228.993 213.74 226.968 212.268C224.981 210.796 222.183 210.059 218.576 210.059Z" fill="white"/>
<path d="M207.699 172.267C207.699 173.445 208.325 174.494 209.576 175.415C210.865 176.335 212.54 177.034 214.601 177.513C216.699 178.028 218.889 178.286 221.171 178.286C222.938 178.286 224.65 178.083 226.306 177.678C227.962 177.273 229.435 176.666 230.723 175.856L231.606 175.304L232.324 175.967L233.042 182.427C230.76 182.611 228.809 182.703 227.189 182.703C225.496 182.703 223.693 182.611 221.778 182.427L214.049 183.586C211.767 183.917 210.129 184.414 209.135 185.077C208.178 185.739 207.699 186.715 207.699 188.003C207.699 189.181 208.325 190.23 209.576 191.15C210.865 192.07 212.54 192.77 214.601 193.248C216.699 193.764 218.889 194.021 221.171 194.021C222.938 194.021 224.65 193.819 226.306 193.414C227.962 193.009 229.435 192.402 230.723 191.592L231.606 191.04L232.324 191.702L233.042 198.162C230.76 198.346 228.809 198.438 227.189 198.438C222.294 198.438 218.098 197.941 214.601 196.948C211.141 195.954 208.527 194.629 206.761 192.972C204.994 191.316 204.11 189.531 204.11 187.617C204.11 185.482 204.626 183.807 205.656 182.592C206.724 181.414 208.527 180.494 211.067 179.832C208.785 178.838 207.055 177.623 205.877 176.188C204.699 174.789 204.11 173.28 204.11 171.66C204.11 169.746 204.46 168.2 205.159 167.022C205.896 165.881 207.055 164.961 208.638 164.262C210.257 163.562 212.503 163.01 215.374 162.605L227.079 160.894C227.557 160.82 227.87 160.71 228.018 160.562C228.202 160.415 228.294 160.158 228.294 159.789L228.294 157.36L229.729 156.863C230.686 157.82 231.477 158.961 232.103 160.286C232.729 161.611 233.042 162.789 233.042 163.82C233.042 164.814 232.453 165.403 231.275 165.587L214.049 168.071C211.767 168.403 210.129 168.881 209.135 169.507C208.178 170.133 207.699 171.053 207.699 172.267Z" fill="white"/>
<path d="M242.097 127.563C242.538 127.563 242.851 127.471 243.035 127.287C243.219 127.14 243.311 126.864 243.311 126.459L243.311 124.03L244.747 123.533C245.704 124.6 246.495 125.815 247.121 127.177C247.747 128.576 248.06 129.79 248.06 130.821C248.06 131.336 247.894 131.76 247.563 132.091C247.232 132.422 246.808 132.588 246.293 132.588L224.815 132.588C227.208 133.545 229.177 134.98 230.723 136.894C232.269 138.808 233.042 140.814 233.042 142.913C233.042 145.6 232.25 147.495 230.668 148.599C229.085 149.74 226.527 150.311 222.993 150.311L209.632 150.311C208.38 150.311 207.754 150.863 207.754 151.967C207.754 152.888 208.141 153.808 208.914 154.728L207.478 155.777C206.411 154.82 205.564 153.789 204.939 152.685C204.313 151.581 204 150.55 204 149.593C204 148.084 204.46 146.998 205.38 146.336C206.301 145.673 207.791 145.342 209.853 145.342L222.993 145.342C224.944 145.342 226.38 144.974 227.3 144.238C228.257 143.538 228.735 142.324 228.735 140.594C228.735 139.011 228.11 137.612 226.858 136.397C225.607 135.22 223.84 134.281 221.558 133.582C219.276 132.919 216.662 132.588 213.717 132.588C211.987 132.588 210.607 132.717 209.576 132.974C208.546 133.232 207.552 133.692 206.595 134.355L205.712 135.017L204.883 134.355L204.883 124.692L206.595 124.085L206.871 125.244C207.092 126.165 207.478 126.772 208.031 127.067C208.619 127.398 209.613 127.563 211.012 127.563L242.097 127.563Z" fill="white"/>
<path d="M206.816 108.325C206.816 109.834 207.221 111.067 208.031 112.024C208.877 113.018 209.963 113.515 211.288 113.515C212.466 113.515 213.423 112.999 214.159 111.969C214.895 110.975 215.687 109.484 216.533 107.497C217.269 105.693 217.987 104.184 218.687 102.969C219.386 101.791 220.288 100.779 221.392 99.9324C222.533 99.0859 223.932 98.6626 225.588 98.6626C227.797 98.6626 229.582 99.6012 230.944 101.478C232.342 103.392 233.042 105.803 233.042 108.711C233.042 111.325 232.527 113.496 231.496 115.226C230.465 116.956 229.085 117.821 227.355 117.821C225.956 117.821 224.797 117.38 223.877 116.496C222.993 115.65 222.551 114.545 222.551 113.183C222.551 112.411 222.791 112.024 223.269 112.024C223.416 112.024 223.785 112.153 224.373 112.411C224.999 112.705 225.662 112.852 226.361 112.852C227.723 112.852 228.735 112.392 229.398 111.472C230.06 110.552 230.392 109.503 230.392 108.325C230.392 106.816 230.005 105.619 229.232 104.736C228.496 103.889 227.539 103.466 226.361 103.466C224.999 103.466 223.895 104 223.048 105.067C222.239 106.171 221.392 107.791 220.509 109.926C219.772 111.693 219.073 113.165 218.41 114.343C217.785 115.521 216.975 116.515 215.981 117.324C214.987 118.134 213.791 118.539 212.392 118.539C209.889 118.539 207.883 117.545 206.374 115.558C204.865 113.57 204.11 110.92 204.11 107.607C204.11 104.81 204.736 102.509 205.988 100.705C207.239 98.9018 208.914 98 211.012 98C212.263 98 213.294 98.4233 214.104 99.2699C214.914 100.116 215.319 101.221 215.319 102.583C215.319 103.356 215.098 103.742 214.656 103.742C214.546 103.742 214.196 103.632 213.607 103.411C213.055 103.19 212.374 103.08 211.564 103.08C210.018 103.08 208.84 103.613 208.031 104.681C207.221 105.785 206.816 107 206.816 108.325Z" fill="white"/>
<path fill-rule="evenodd" clip-rule="evenodd" d="M245.78 92.8908C248.389 96.8164 250.781 102.814 252.955 110.883L254.912 118.407L266 114.481V56.2525L260.782 51.9999L254.912 56.2525C248.824 60.8323 236.431 63.1222 217.733 63.1222H133.267C114.569 63.1222 102.176 60.8323 96.0883 56.2525L90.218 51.9999L85 56.2525V114.481L96.0883 118.407L98.045 110.883C100.219 102.814 102.502 96.8164 104.894 92.8908C107.503 88.7472 110.981 85.9121 115.33 84.3855C119.678 82.6408 125.766 81.7685 133.593 81.7685H148.268C152.834 81.7685 155.769 83.4041 157.074 86.6754C158.596 89.7286 159.357 96.3802 159.357 106.63V159H191.643V106.63C191.643 96.3802 192.295 89.7286 193.6 86.6754C195.122 83.4041 198.166 81.7685 202.732 81.7685H217.407C225.234 81.7685 231.322 82.6408 235.67 84.3855C240.019 85.9121 243.389 88.7472 245.78 92.8908ZM191.643 209H159.357V232.247C159.357 245.332 158.27 255.909 156.095 263.979C153.921 272.048 150.117 279.681 144.681 286.878L140.441 292.766L144.681 298H216.103L220.016 286.878L212.515 284.915C204.253 282.516 198.709 279.354 195.883 275.428C193.056 271.503 191.643 264.524 191.643 254.492V209Z" fill="white"/>
</svg>
